<svg width="316" height="40" viewBox="0 0 316 40" fill="none" xmlns="http://www.w3.org/2000/svg">
<path d="M20 0C8.9549 0 0 9.00896 0 20.1207C0 30.162 7.31273 38.4848 16.8757 40V25.9382H11.7952V20.1207H16.8757V15.6877C16.8757 10.6409 19.862 7.85793 24.4284 7.85793C26.6167 7.85793 28.9089 8.25033 28.9089 8.25033V13.1985H26.3806C23.9004 13.1985 23.1243 14.752 23.1243 16.3437V20.1167H28.6669L27.7808 25.9342H23.1243V39.996C32.6873 38.4888 40 30.164 40 20.1207C40 9.00896 31.0451 0 20 0Z" fill="white"/>
<path d="M128 7.8012C126.603 8.42605 125.082 8.87576 123.515 9.0509C125.142 8.04942 126.36 6.46723 126.941 4.6012C125.414 5.54222 123.743 6.20207 121.999 6.5515C121.271 5.74405 120.389 5.1008 119.41 4.66183C118.431 4.22286 117.376 3.99758 116.309 4.00002C111.994 4.00002 108.523 7.62605 108.523 12.0758C108.523 12.7006 108.596 13.3255 108.715 13.9266C102.253 13.5763 96.4894 10.3763 92.6579 5.47694C91.9597 6.71299 91.5939 8.12038 91.5984 9.55268C91.5984 12.355 92.973 14.826 95.0691 16.2793C93.8338 16.2289 92.6275 15.8769 91.5481 15.2521V15.3515C91.5481 19.2757 94.2243 22.5278 97.7909 23.2757C97.1212 23.4561 96.4323 23.5483 95.7404 23.5503C95.2335 23.5503 94.754 23.4982 94.2699 23.4272C95.2563 26.6272 98.1288 28.9515 101.549 29.0272C98.8732 31.2 95.5212 32.4781 91.8815 32.4781C91.2285 32.4781 90.6256 32.4544 90 32.3787C93.4525 34.6746 97.5489 36 101.96 36C116.282 36 124.118 23.7018 124.118 13.0272C124.118 12.6769 124.118 12.3266 124.095 11.9763C125.612 10.8261 126.941 9.4012 128 7.8012Z" fill="white"/>
<path d="M197.995 9.73807C192.316 9.73807 187.733 14.3212 187.733 20C187.733 25.6788 192.316 30.2619 197.995 30.2619C203.673 30.2619 208.256 25.6788 208.256 20C208.256 14.3212 203.673 9.73807 197.995 9.73807ZM197.995 26.6695C194.322 26.6695 191.325 23.6725 191.325 20C191.325 16.3275 194.322 13.3305 197.995 13.3305C201.667 13.3305 204.664 16.3275 204.664 20C204.664 23.6725 201.667 26.6695 197.995 26.6695ZM208.677 6.92617C207.351 6.92617 206.28 7.99689 206.28 9.32279C206.28 10.6487 207.351 11.7194 208.677 11.7194C210.003 11.7194 211.073 10.6537 211.073 9.32279C211.074 9.00795 211.012 8.69612 210.892 8.40517C210.771 8.11422 210.595 7.84986 210.372 7.62724C210.15 7.40461 209.885 7.2281 209.594 7.10779C209.303 6.98749 208.991 6.92577 208.677 6.92617ZM217.998 20C217.998 17.2381 218.023 14.5013 217.868 11.7444C217.713 8.54226 216.982 5.70034 214.641 3.35876C212.294 1.01217 209.457 0.286681 206.255 0.131576C203.493 -0.0235287 200.756 0.00148823 198 0.00148823C195.238 0.00148823 192.501 -0.0235287 189.744 0.131576C186.542 0.286681 183.7 1.01717 181.359 3.35876C179.012 5.70534 178.287 8.54226 178.132 11.7444C177.976 14.5063 178.001 17.2431 178.001 20C178.001 22.7569 177.976 25.4987 178.132 28.2556C178.287 31.4577 179.017 34.2997 181.359 36.6412C183.705 38.9878 186.542 39.7133 189.744 39.8684C192.506 40.0235 195.243 39.9985 198 39.9985C200.761 39.9985 203.498 40.0235 206.255 39.8684C209.457 39.7133 212.299 38.9828 214.641 36.6412C216.987 34.2947 217.713 31.4577 217.868 28.2556C218.028 25.4987 217.998 22.7619 217.998 20ZM213.595 31.798C213.23 32.7086 212.789 33.389 212.084 34.0895C211.378 34.795 210.703 35.2353 209.792 35.6005C207.161 36.6462 200.912 36.4111 197.995 36.4111C195.078 36.4111 188.824 36.6462 186.192 35.6055C185.281 35.2403 184.601 34.8 183.9 34.0945C183.195 33.389 182.755 32.7136 182.389 31.803C181.349 29.1662 181.584 22.917 181.584 20C181.584 17.083 181.349 10.8288 182.389 8.19703C182.755 7.28641 183.195 6.60595 183.9 5.90548C184.606 5.205 185.281 4.7597 186.192 4.39446C188.824 3.35375 195.078 3.58891 197.995 3.58891C200.912 3.58891 207.166 3.35375 209.797 4.39446C210.708 4.7597 211.388 5.2 212.089 5.90548C212.794 6.61095 213.235 7.28641 213.6 8.19703C214.641 10.8288 214.405 17.083 214.405 20C214.405 22.917 214.641 29.1662 213.595 31.798Z" fill="white"/>
<path d="M316 19.8449C316 19.723 316 19.5845 315.995 19.4238C315.989 18.9751 315.979 18.4709 315.968 17.9335C315.925 16.3878 315.85 14.8476 315.732 13.3961C315.571 11.3961 315.336 9.72853 315.014 8.47645C314.675 7.1698 314.01 5.97811 313.086 5.02048C312.162 4.06285 311.011 3.37283 309.748 3.01939C308.232 2.59834 305.264 2.33795 301.086 2.17729C299.098 2.09972 296.971 2.04986 294.845 2.02216C294.1 2.01108 293.409 2.00554 292.788 2H291.212C290.591 2.00554 289.9 2.01108 289.155 2.02216C287.029 2.04986 284.902 2.09972 282.914 2.17729C278.736 2.34349 275.762 2.60388 274.252 3.01939C272.989 3.37196 271.837 4.06169 270.913 5.01945C269.989 5.97722 269.324 7.16937 268.986 8.47645C268.659 9.72853 268.429 11.3961 268.268 13.3961C268.15 14.8476 268.075 16.3878 268.032 17.9335C268.016 18.4709 268.011 18.9751 268.005 19.4238C268.005 19.5845 268 19.723 268 19.8449V20.1551C268 20.277 268 20.4155 268.005 20.5762C268.011 21.0249 268.021 21.5291 268.032 22.0665C268.075 23.6122 268.15 25.1524 268.268 26.6039C268.429 28.6039 268.664 30.2715 268.986 31.5235C269.671 34.1773 271.686 36.2715 274.252 36.9806C275.762 37.4017 278.736 37.662 282.914 37.8227C284.902 37.9003 287.029 37.9501 289.155 37.9778C289.9 37.9889 290.591 37.9945 291.212 38H292.788C293.409 37.9945 294.1 37.9889 294.845 37.9778C296.971 37.9501 299.098 37.9003 301.086 37.8227C305.264 37.6565 308.237 37.3961 309.748 36.9806C312.314 36.2715 314.329 34.1828 315.014 31.5235C315.341 30.2715 315.571 28.6039 315.732 26.6039C315.85 25.1524 315.925 23.6122 315.968 22.0665C315.984 21.5291 315.989 21.0249 315.995 20.5762C315.995 20.4155 316 20.277 316 20.1551V19.8449ZM312.143 20.133C312.143 20.2493 312.143 20.3767 312.138 20.5263C312.132 20.9584 312.121 21.4349 312.111 21.9501C312.073 23.4238 311.998 24.8975 311.886 26.2659C311.741 28.0499 311.538 29.5125 311.286 30.4931C310.954 31.7729 309.979 32.7867 308.746 33.1247C307.621 33.4349 304.787 33.6842 300.936 33.8338C298.986 33.9114 296.886 33.9612 294.791 33.9889C294.057 34 293.377 34.0055 292.766 34.0055H291.234L289.209 33.9889C287.114 33.9612 285.02 33.9114 283.064 33.8338C279.213 33.6787 276.373 33.4349 275.254 33.1247C274.021 32.7812 273.046 31.7729 272.714 30.4931C272.463 29.5125 272.259 28.0499 272.114 26.2659C272.002 24.8975 271.932 23.4238 271.889 21.9501C271.873 21.4349 271.868 20.9529 271.863 20.5263C271.863 20.3767 271.857 20.2438 271.857 20.133V19.867C271.857 19.7507 271.857 19.6233 271.863 19.4737C271.868 19.0415 271.879 18.5651 271.889 18.0499C271.927 16.5762 272.002 15.1025 272.114 13.7341C272.259 11.9501 272.463 10.4875 272.714 9.50692C273.046 8.22715 274.021 7.2133 275.254 6.87535C276.379 6.5651 279.213 6.31579 283.064 6.1662C285.014 6.08864 287.114 6.03878 289.209 6.01108C289.943 6 290.623 5.99446 291.234 5.99446H292.766L294.791 6.01108C296.886 6.03878 298.98 6.08864 300.936 6.1662C304.787 6.32133 307.627 6.5651 308.746 6.87535C309.979 7.21884 310.954 8.22715 311.286 9.50692C311.538 10.4875 311.741 11.9501 311.886 13.7341C311.998 15.1025 312.068 16.5762 312.111 18.0499C312.127 18.5651 312.132 19.0471 312.138 19.4737C312.138 19.6233 312.143 19.7562 312.143 19.867V20.133ZM287.232 27.4238L299.661 19.9446L287.232 12.5762V27.4238Z" fill="white"/>
</svg>
